<svg width="44" height="30" viewBox="0 0 44 30" fill="none" xmlns="http://www.w3.org/2000/svg">
<path d="M42 12.7286C43.1046 12.7286 44 13.6241 44 14.7286C44 15.8332 43.1046 16.7286 42 16.7286L42 14.7286L42 12.7286ZM0.585781 16.1427C-0.195263 15.3617 -0.195259 14.0953 0.585789 13.3143L13.3137 0.586409C14.0948 -0.194638 15.3611 -0.194635 16.1422 0.586415C16.9232 1.36747 16.9232 2.6338 16.1422 3.41484L4.82843 14.7285L16.1421 26.0423C16.9232 26.8233 16.9232 28.0896 16.1421 28.8707C15.361 29.6517 14.0947 29.6517 13.3137 28.8707L0.585781 16.1427ZM42 14.7286L42 16.7286L2 16.7285L2 14.7285L2 12.7285L42 12.7286L42 14.7286Z" fill="white"/>
</svg>
