<svg width="50" height="50" viewBox="0 0 50 50" fill="none" xmlns="http://www.w3.org/2000/svg">
<path d="M18.7663 47.1593C17.2726 47.1593 17.5265 46.4876 17.0113 44.7938L12.6191 27.5799L46.4287 3.69336" fill="#C0C4C8"/>
<path d="M18.8086 47.1587C19.945 47.1587 20.4469 46.5344 21.0813 45.7937L27.1419 38.7145L19.5821 33.2383" fill="#747A7E"/>
<path d="M19.5878 32.9969L38.1176 49.3189C40.2323 50.71 41.758 49.9896 42.2849 46.9786L49.8274 4.60166C50.5995 0.910471 48.6473 -0.764268 46.6242 0.330754L2.33436 20.6921C-0.688798 22.138 -0.67079 24.149 1.78337 25.0448L13.1491 29.2746L39.4621 9.48243C40.7043 8.5843 41.8446 9.06672 40.9089 10.0571" fill="white"/>
</svg>
