<svg width="50" height="50" viewBox="0 0 50 50" fill="none" xmlns="http://www.w3.org/2000/svg">
<path d="M0 21.8182C0 14.1811 0 10.3626 1.48627 7.44559C2.79364 4.87973 4.87973 2.79364 7.44559 1.48627C10.3626 0 14.1811 0 21.8182 0H28.1818C35.8189 0 39.6375 0 42.5543 1.48627C45.1202 2.79364 47.2064 4.87973 48.5136 7.44559C50 10.3626 50 14.1811 50 21.8182V28.1818C50 35.8189 50 39.6375 48.5136 42.5543C47.2064 45.1202 45.1202 47.2064 42.5543 48.5136C39.6375 50 35.8189 50 28.1818 50H21.8182C14.1811 50 10.3626 50 7.44559 48.5136C4.87973 47.2064 2.79364 45.1202 1.48627 42.5543C0 39.6375 0 35.8189 0 28.1818V21.8182Z" fill="white"/>
<path fill-rule="evenodd" clip-rule="evenodd" d="M24.9996 38.636C32.5308 38.636 38.636 32.5308 38.636 24.9996C38.636 17.4685 32.5308 11.3633 24.9996 11.3633C17.4685 11.3633 11.3633 17.4685 11.3633 24.9996C11.3633 32.5308 17.4685 38.636 24.9996 38.636ZM24.9996 34.0906C30.0203 34.0906 34.0906 30.0203 34.0906 24.9996C34.0906 19.9789 30.0203 15.9087 24.9996 15.9087C19.9789 15.9087 15.9087 19.9789 15.9087 24.9996C15.9087 30.0203 19.9789 34.0906 24.9996 34.0906Z" fill="#090B0D"/>
<path d="M38.5568 8.58398C37.0519 8.58398 35.832 9.80393 35.832 11.3088C35.832 12.8136 37.0519 14.0336 38.5568 14.0336C40.0617 14.0336 41.2816 12.8136 41.2816 11.3088C41.2816 9.80393 40.0617 8.58398 38.5568 8.58398Z" fill="#090B0D"/>
</svg>
